<svg xmlns="http://www.w3.org/2000/svg"
  xmlns:xlink="http://www.w3.org/1999/xlink" width="1000" height="500">
  <polygon fill="rgb(220,240,255)" points="662.417283760745,279.305731612624 660.621637616963,277.880654419531 652.821746513376,262.248160210727 667.058343605441,246.585238933902 676.211607836649,234.775997207118 684.186317077537,222.095124576053 686.190901729413,220.634448208 693.198784671405,220.509280357865 761.841466330469,218.513184447923 769.179089926251,221.174913518493 770.630269987093,222.525735311672 771.606330369311,232.223754333368 777.405228662685,242.888650092848 770.155580516802,253.571732883696 767.266342703437,250.240058450003 767.617536998869,238.300098963091 764.446127439993,236.18104070079 766.786271499819,234.529397765733 754.280271322443,232.259272413327 745.93902192364,232.01263450972 750.342977039442,238.232254877613 752.631265211827,252.945138728857 746.176955906702,260.123688292321 743.137632701842,268.231978149445 732.437165484902,277.729737839147 724.78970100614,278.973719676059 708.333333666611,278.972222189117 666.58395042265,279.305731612624 662.417283760745,279.305731612624 "/>
  <polygon fill="rgb(220,240,255)" points="660.515070625418,276.760714053033 658.862074177307,281.397957930512 647.28990957803,287.181530398347 637.693417601496,282.299291403926 607.267186148763,304.368448998708 599.825891436432,307.839646684742 597.500894559922,316.090337549203 595.854027878471,326.763651230896 592.162351232689,332.605706433942 586.891662513712,334.070785557268 591.058329175617,339.626341106476 711.664392696138,337.27736462666 715.831059358044,334.499586852056 713.932104560214,333.209904612419 707.850279854663,332.256711423508 704.077410383974,329.379744157351 704.728727612397,325.951980557379 719.139587600097,313.511305233539 736.820539654893,301.56285706997 750.358259693591,293.244622301141 749.295702632305,288.286954836529 724.949206393458,280.657753531079 732.2930265309,277.86163394483 733.874480062426,274.548472734727 731.308404202858,273.093914225834 665.61863897792,273.441873569325 662.256247548429,274.642721681008 "/>
  <polygon fill="rgb(220,240,255)" points="656.679534046468,337.584516790753 715.233975579559,333.836567032536 732.379305314135,335.817110338051 739.640041964171,347.459050649192 724.929288322648,355.705870926991 708.757353432793,357.116490512046 704.586858604226,360.274977720381 710.929077646979,385.529152781802 706.767496610067,386.766393143444 697.520733216466,381.171420607893 691.536692335804,373.663718562027 688.42220829353,374.104927742634 691.422664365101,388.238998933983 675.306822308516,416.556237391626 666.795827514075,416.621877942662 609.357720104707,414.424844140728 578.879197618701,394.62459454502 551.852705024583,381.967950917816 559.4810990117,362.158511125451 575.303135735287,347.536287801882 570.346273015951,338.002923714998 588.270893528803,333.321540415069 656.679534046468,337.584516790753 "/>
  <polygon fill="rgb(220,240,255)" points="612.115981551556,387.104904859446 571.086116152606,367.297658560968 559.265892674446,361.326250159458 475.065402908159,360.359359212785 441.449489829904,354.133427099344 416.685449016534,358.346232415363 410.414412332033,364.608689843207 385.255999927448,406.324913016373 379.804890800343,446.148926323645 348.748489377497,470.038748075236 359.740653577437,485.168120854892 377.663704123623,488.31609694824 453.797523811628,489.525563901302 637.685909730671,466.320400490596 628.037489050029,457.648171259949 598.305700179836,449.508420412028 605.628767000635,446.935511175802 651.547315877332,447.974401972948 673.774086081101,432.946587148175 662.504380706479,427.900762088663 674.690562213387,417.696142680324 672.6078858116,411.355077713403 645.592231684137,397.775080172531 "/>
  <polygon fill="rgb(220,240,255)" points="404.682711130249,411.779573043751 423.94449440824,376.333228297865 419.034532218017,360.005462453467 415.361275018047,358.202265815527 409.572227266329,355.443771154513 415.167937843268,350.661247840811 412.582882446222,343.072607962816 379.152668684422,339.193630362804 387.660990641366,331.012795960207 382.276777405852,325.423063846872 372.169099371568,326.295949740041 337.924381027365,319.279816918058 331.476304797233,313.941690865547 330.100039802973,304.791473664614 327.719479676526,304.238757216634 322.538370874113,304.063210601279 304.713838227814,316.568077708657 266.296211925879,335.51005616729 234.991064794984,352.136382504125 211.064232522324,369.218451386829 206.603390831588,375.29729427266 206.459398998419,379.966930532047 224.782915039982,388.694802087351 225.659883430646,405.208615623759 220.445917236604,424.403237716548 202.964761094079,431.343890781951 203.693930343246,437.381192321997 253.684387956957,452.381014999024 292.217444387927,469.896220131787 353.496248767905,486.278336830568 424.516655636752,486.841753271035 451.660258655736,469.767877643045 416.108230154694,451.145762577657 400.425360714281,428.475809910506 "/>
  <polygon fill="rgb(220,240,255)" points="276.308518772772,341.428771576361 328.001010463704,315.119677558645 329.907409990693,307.238954036262 329.465956078697,303.867212057614 325.337615995915,300.212689865957 324.521331355181,299.425936441578 307.99635460323,288.748605725445 302.459360426224,277.191121239207 283.164297635771,260.955486719982 270.753690049953,239.298864020006 257.460133719309,225.92859573695 260.762110944703,221.581654085806 260.496093307507,219.480744867929 257.981362539547,218.506563310153 245.623530457834,217.764830406279 216.26607724138,216.11564424233 173.674760660881,218.772543223183 163.308974547726,225.020296864377 159.840827401689,228.320381849773 159.851416493343,231.857215531842 162.970993702279,249.361720771563 159.632341356094,266.88967238459 157.761463208232,282.779365243377 176.788648128157,314.709659201336 175.464012725503,335.292421847539 180.259161653358,360.310761637285 204.510033438147,378.17583644826 215.81743795856,379.410762262127 240.306550443077,365.042206920767 259.928435599822,350.805093827313 "/>
  <polygon fill="rgb(220,240,255)" points="220.863182315294,227.808571521469 259.914249970672,220.348602209993 261.242992114987,218.00284176184 258.310502268338,215.806103063517 249.32334761194,209.063484191499 239.036225282028,196.167507677068 243.355577197926,192.558765173692 242.599176865457,189.845385203459 235.510130394391,187.337839366324 217.585430794039,156.774757068192 207.638167930406,148.924959656328 193.620491258924,120.545141376535 186.78015144174,119.064645463782 160.4731393093,121.693879664944 115.07030888618,137.312271135709 93.5638334399215,156.277680352927 96.7798840237465,167.784690326167 102.260640721651,184.702524475169 125.330336586956,200.152855924736 137.980504326668,221.121449532443 142.240082675967,223.562152734099 145.61842084294,221.815231437484 160.303962755326,231.793302564138 171.568472025788,233.252943055247 191.18154103671,233.533358243538 "/>
  <polygon fill="rgb(220,240,255)" points="156.143775043413,132.778042551446 183.803297653474,122.995566523735 193.524242571533,120.097173659269 194.55746072452,115.485437521205 197.764060225022,102.064367388486 186.142994754968,95.2821578090132 166.709028235508,67.9225862277761 133.669660806594,69.128059904732 122.442564427756,67.7072231027444 100.04755058668,50.1467030578102 4.01100583808397,29.498440503071 -6.76554095476899,30.2140005347534 -17.934106446174,35.2779083523003 -27.427826431159,53.6347686588245 -9.74367172220002,99.8860441370859 -7.46822757480004,115.671016278771 -0.282406208011025,121.938196303832 18.0908004136621,132.507692805644 40.9766456291778,134.237535305056 60.9873215438123,142.666593362369 65.3691913888052,139.796112618149 75.2571658525067,159.030118101171 80.3173219300577,158.406488737439 82.3789313777022,150.092055636106 97.9467319057466,169.984317229487 103.128338091492,171.30810371103 120.984588754422,161.863769251544 136.885964452919,148.256687118759 "/>
  <polygon fill="rgb(220,240,255)" points="1156.14377504341,132.778042551446 1183.80329765347,122.995566523735 1193.52424257153,120.097173659269 1194.55746072452,115.485437521205 1197.76406022502,102.064367388486 1186.14299475497,95.2821578090132 1166.70902823551,67.9225862277761 1133.66966080659,69.128059904732 1122.44256442776,67.7072231027444 1100.04755058668,50.1467030578102 1004.01100583808,29.498440503071 993.234459045231,30.2140005347534 982.065893553826,35.2779083523003 972.572173568841,53.6347686588245 990.2563282778,99.8860441370859 992.5317724252,115.671016278771 999.717593791989,121.938196303832 1018.09080041366,132.507692805644 1040.97664562918,134.237535305056 1060.98732154381,142.666593362369 1065.36919138881,139.796112618149 1075.25716585251,159.030118101171 1080.31732193006,158.406488737439 1082.3789313777,150.092055636106 1097.94673190575,169.984317229487 1103.12833809149,171.30810371103 1120.98458875442,161.863769251544 1136.88596445292,148.256687118759 "/>
  <polygon fill="rgb(220,240,255)" points="-3.34938544617296,68.2657421465506 12.1619419162702,31.9112943661472 3.71770544258561,29.472663836156 -12.999902410145,29.749370314451 -53.708867080295,37.2376929114498 -87.260257971124,35.0313996298042 -91.391321362237,48.183151561165 -102.748507499259,55.8256468757656 -118.593125560321,48.7819830760363 -136.559525310625,44.9786581687156 -157.494201836703,53.6124803266278 -189.755976666505,60.2948811142698 -159.453503017798,62.5072118739641 -157.206184574532,68.3893620922427 -190.217608736811,81.6910387098211 -205.130554078104,71.9974812658976 -226.098483441645,75.3751544531492 -217.785235580311,81.6802634198334 -179.487484924072,90.2024409989843 -123.809597058527,117.228755970047 -112.651402412944,126.495426283902 -105.985492366394,130.082315234804 -98.912879970309,128.863647086474 -95.877040398778,133.458473783168 -93.550665930603,138.936735437186 -90.5773854465,144.710833565588 -88.345686990717,144.439056492288 -86.716264484245,143.462107095348 -87.475367791712,139.049796032335 -89.642612893402,133.499287708955 -90.346634763431,130.135919966965 -87.648635829013,129.167609925293 -79.688885208942,125.617617509905 -67.360943723029,135.422080611202 -41.959489977054,120.324106738176 -34.259451610853,124.597408210238 -20.034423410441,117.247379217803 1.81216324892978,121.509330643766 7.67591747972926,117.50729370334 13.6401972437477,102.460464681366 6.98638257218408,82.3347971982522 "/>
  <polygon fill="rgb(220,240,255)" points="996.650614553827,68.2657421465506 1012.16194191627,31.9112943661472 1003.71770544259,29.472663836156 987.000097589855,29.749370314451 946.291132919705,37.2376929114498 912.739742028876,35.0313996298042 908.608678637763,48.183151561165 897.251492500741,55.8256468757656 881.406874439679,48.7819830760363 863.440474689375,44.9786581687156 842.505798163297,53.6124803266278 810.244023333495,60.2948811142698 840.546496982202,62.5072118739641 842.793815425468,68.3893620922427 809.782391263189,81.6910387098211 794.869445921896,71.9974812658976 773.901516558355,75.3751544531492 782.214764419689,81.6802634198334 820.512515075928,90.2024409989843 876.190402941473,117.228755970047 887.348597587056,126.495426283902 894.014507633606,130.082315234804 901.087120029691,128.863647086474 904.122959601222,133.458473783168 906.449334069397,138.936735437186 909.4226145535,144.710833565588 911.654313009283,144.439056492288 913.283735515755,143.462107095348 912.524632208288,139.049796032335 910.357387106598,133.499287708955 909.653365236569,130.135919966965 912.351364170987,129.167609925293 920.311114791058,125.617617509905 932.639056276971,135.422080611202 958.040510022946,120.324106738176 965.740548389147,124.597408210238 979.965576589559,117.247379217803 1001.81216324893,121.509330643766 1007.67591747973,117.50729370334 1013.64019724375,102.460464681366 1006.98638257218,82.3347971982522 "/>
  <polygon fill="rgb(220,240,255)" points="813.641345462946,82.9849828691759 794.620988263846,79.29124838673 783.537746176511,78.6532720255145 781.37960299981,81.5717914807907 783.791337384555,87.7477526104003 792.112177766713,89.8714295915848 759.84251761192,108.805480066616 754.547448722137,101.005110667474 755.715803304136,91.7227328516915 753.032079898869,91.7360388302875 749.174287719944,92.5646717373962 748.01039341294,95.0540840048294 734.467386428415,126.027067378604 733.39875856297,129.729346695207 721.460707730778,140.107551215848 722.538452571213,141.283829789782 726.011419458911,142.387820042409 773.568680167069,139.720359564624 857.256013679775,142.239389696468 866.930870397887,144.079159517699 880.854305986144,141.533197270053 894.197851687563,130.147128551674 899.045073802858,128.863739422307 902.219523340897,126.066833708559 898.632190586663,122.464785324064 854.154862474986,100.283664258298 821.225731208446,86.6694184144103 "/>
  <polygon fill="rgb(220,240,255)" points="730.961996686588,138.472585358828 721.535481643192,139.974359813778 714.618322705263,140.367185942774 716.860655644367,155.122069282858 697.56446008725,163.279960499092 688.184956127134,193.988193933447 683.155250624548,205.590759733801 683.721642478068,222.451909685367 686.147490850296,226.700730709401 695.124704577538,226.499893262408 760.092139074135,223.488224880016 768.92107413488,223.092584781857 770.54261534136,222.059170345816 771.723615931677,220.769075487568 778.498285807269,213.13021410963 781.976549865795,213.484126195614 796.188103670389,216.425383785865 796.561837115795,214.647289942063 791.898846433624,207.170804980328 792.376909112244,204.519672237247 803.693524236813,201.878841923875 820.924709517123,193.67887210269 820.338760030293,189.94304715307 813.262326213379,176.685293055163 807.634410898977,162.466082349744 808.390807564779,159.637733685476 841.074411006599,164.284602199055 850.043625442184,162.947961197527 850.700636087266,159.600546738296 856.720574963721,143.958161396448 856.089918985275,138.934550229689 843.134911608411,132.790127567821 783.168096010267,128.916465454469 746.086841798472,132.814398305849 "/>
  <polygon fill="rgb(180,210,255)" points="874.644240364073,115.369513929949 865.182518870718,120.52420285017 858.903886357059,116.720332205905 862.588087173683,111.046208147945 858.992344006958,109.317988568808 842.512782725789,115.696716474853 830.654671981005,128.534361783239 826.260147852694,129.275628548781 824.876111537608,124.110995623016 826.499461494087,119.996651044939 828.197738183813,117.01607077779 827.950946775762,112.847310427553 830.263267010619,109.677926880064 826.144496190326,108.003718686977 818.157572170285,107.827351845234 816.892134917565,112.061027829007 811.774784148412,124.713547061216 807.742498082186,129.520380225446 802.299432392573,130.054087272614 791.213227234407,126.528290082476 785.324237745303,123.809373795305 780.10792445543,123.564988927806 773.026651555188,123.304042004494 762.038566555244,136.217270794182 755.297149917114,139.225663775467 748.519025474859,140.727359311251 745.253599807757,152.91013043483 741.373007633025,161.390976425695 743.750262484475,168.431707135983 757.59661454782,172.47046243609 770.19861565842,173.704369589403 774.34922269951,170.652724378445 780.536368471607,166.616019781947 783.047229202071,158.173625436316 784.474784483774,154.866198413706 788.140319633752,153.476523420294 787.655114075973,150.633256976043 788.205747296177,143.766840730834 791.684601042202,141.389252720495 801.178697743853,139.282343440402 808.537751802111,135.894949649829 819.955738051564,136.736213378589 824.971266341666,138.631021291424 828.224335787949,137.846880135654 831.035633726403,133.009346732848 843.665664307805,125.882401290992 845.840904709486,126.981278467514 855.108431415563,124.356926171346 866.927146272891,123.260078515099 874.452379968459,119.834016828459 876.013309012509,117.853273576833 875.821277533562,115.60129417274 "/>
  <polygon fill="rgb(180,210,255)" points="745.788683019646,169.668678531236 747.744781613244,167.022011708705 751.131988467707,166.464046236009 758.31680121783,169.497686384487 765.636787526132,170.821522572141 768.070713544185,173.911555894722 766.139342321392,177.149900974355 757.942409297425,184.4809614882 760.05240079918,188.596759538219 764.076487819582,189.949050103896 766.70356544158,190.567145259579 768.169380594072,193.112321200004 776.14672860579,201.06904819119 772.719152559706,204.330565908852 766.946466870469,212.322775249441 763.825691936535,209.664860903034 763.110943083185,214.282237979147 758.219346559608,221.11274417662 752.237965053943,223.265042868327 749.692753831851,225.842028088993 737.950143003602,234.052130656834 731.931384964647,249.326082703548 731.710721452399,252.821365025387 731.932574889645,254.463553262677 728.172809243941,256.336716968037 727.510001798865,252.580725912607 726.625771616542,251.882915730626 711.103647655112,256.127475437443 681.700546680377,262.776027482623 680.364550265237,261.667783211668 680.39142409854,259.45213415781 680.872190127157,255.910701505746 684.906582951714,243.748887250198 685.780880300714,240.871868617375 695.157996773333,243.746694670201 698.035659699211,241.533600633563 696.464968430173,238.211669690415 693.735859641625,231.773722592215 694.783515644594,225.976333434673 700.104898051014,229.582664237219 704.84795474976,230.330861519142 703.207175668302,226.829241677865 705.672943369651,226.098989238978 707.139714738808,220.531951308117 712.753038153228,218.210775734102 716.821539686079,218.155671182499 711.081442309304,213.8173222669 709.793437923276,207.866374284256 711.506902583818,201.0796219209 719.666717236994,200.789748639286 719.572513507935,189.95435600139 720.349400023714,184.620103968041 721.609214518108,178.820134125502 723.432520961858,174.107339886442 719.743730924406,169.71774247368 723.500657415947,168.515720190609 730.623176520308,170.44995507951 739.701403409935,170.03699284526 741.06788018754,175.63761478886 741.482711424566,178.75906177446 745.539012432431,175.501637863738 745.684573457264,171.934419770592 "/>
  <polygon fill="rgb(180,210,255)" points="695.746763089327,255.25656629316 683.23559402029,256.33087731971 680.460559215127,259.421896035623 679.894552511607,261.518924192393 678.653955650525,264.051340728111 679.458755112105,273.123661711633 680.989839147856,276.456074166436 681.957973467583,280.120604599193 678.942889250195,285.439941780615 672.891403252943,289.161154044696 660.760195308472,296.025436766019 656.229941121981,305.120183865905 647.94613868978,313.936639324442 648.702390551416,317.932887123209 647.740573052515,322.238144961623 640.696630831397,322.504496555485 632.434501340838,326.727774681492 631.934835691409,329.715027566412 631.760076320776,333.174053787738 632.212617307759,335.327159941388 640.009506211349,337.101953361583 662.889642160205,334.638195658287 666.318062602121,333.575286652835 667.034233747136,332.218969333829 666.994126780515,327.647487209053 668.629135695313,324.607199518082 673.721511547828,326.678684113493 677.930890622185,329.299944212998 682.936756637298,325.489692424852 683.574646907402,322.673011727792 688.762684913974,315.358766545317 694.248697403539,305.748323535465 695.062626098442,299.687805186557 697.350466495828,298.379863160829 703.165758647516,297.494709673229 707.048145722247,294.955091615854 707.284594076143,291.84551523524 706.373818148017,290.402013188556 710.367579005953,289.515423869014 711.502038704657,288.293611596521 710.808958142949,285.417145665363 710.575754797382,283.205275417057 710.783558534645,276.79323366744 707.760315188099,270.825538389814 706.538657893662,267.614053647651 707.874964912968,262.071304061762 713.409786060811,257.943063762035 721.933497276071,253.951874156595 727.486637590559,252.17464751946 728.487873518581,251.369078491491 728.709980009994,249.794091774124 726.149780508753,249.398619795965 722.373070121402,250.025803149137 707.987060992007,251.590400757627 "/>
  <polygon fill="rgb(180,210,255)" points="643.227558582672,328.438971938426 634.433473701054,329.845843267929 631.476107637767,333.043522758164 631.179387096439,335.152489964366 631.002260196642,348.889745826446 627.349395454982,360.866002895817 626.901525984661,363.957029079785 627.478001329835,376.22330643688 624.921625786923,377.976726592376 622.162007106743,379.264793392849 621.120889891266,380.903546806254 626.417176756048,386.618204272502 626.550797935061,389.723558753398 618.599120331648,391.93187047393 611.467977931463,392.449390585283 611.157157302651,389.426966414015 607.533550977625,387.004252906505 600.722383406241,384.182735650285 593.347901118835,382.490018488886 591.9485307621,376.625728642531 582.946919872386,376.150519147796 575.977932567849,377.690411608815 572.370366176138,383.588453370408 566.31865526222,385.968001984912 564.88969424302,389.288863537506 568.727218188635,391.010890589427 587.091513584317,394.420717820809 616.244627967671,398.219336748968 632.623793107289,400.0578812127 639.623028257624,398.4539791712 643.399279440809,395.969111451261 642.481453112691,389.653845502367 650.738040819924,385.983525251005 651.583282060624,381.918596106205 649.152396571735,377.639002608596 653.135076646351,380.357899436044 655.09629555661,382.988234817483 656.134025817924,385.692877257448 667.34829163011,387.052277779506 672.321868111927,385.085673923142 676.295849778219,381.477552623376 675.142003750371,378.477830350693 673.243500198374,377.169475789132 671.174611575738,379.144263849931 669.860166818907,379.203776202085 669.230545815459,369.504777268168 669.872260431393,361.875872190774 673.740766881139,358.013594152688 672.882638198786,356.224457305843 670.54830593062,356.245127608042 666.32174288545,358.424273168052 661.635110669972,358.336644317596 659.780473105424,355.8537679071 660.655472062758,348.556188622105 660.047210859286,343.024419375093 661.795249819789,337.724465508927 662.040243911175,341.708964729096 663.887236850732,342.151326466091 665.575734290469,339.487256888024 666.967828318045,336.594172140218 667.025202555479,331.823763284003 666.717725964164,327.71234209259 664.204919054535,325.391319032186 657.495861908035,325.456936100722 650.633357645043,325.928765755183 "/>
  <polygon fill="rgb(180,210,255)" points="577.444254987007,384.433204229443 568.026338189435,386.575968158939 564.449836451856,388.009226114524 563.739899231833,392.145654335908 565.739730537882,394.563316112035 558.634450279334,396.818161470013 542.604191472651,387.552538216434 524.696926430613,386.184259270498 525.427825317278,389.27167785947 526.294397782954,393.498849487973 507.195738779778,390.671454453704 490.011091599414,388.72903049509 486.690196840709,389.343913832999 485.429879558816,390.9177992912 492.338214838422,394.131855196139 493.8447595117,395.511295637896 492.122906488668,396.4509440771 483.973905347979,396.944509630702 471.705061016165,396.293951671168 470.070531505533,397.472656908432 483.776877973204,403.598881985877 486.988917119534,406.877072166853 478.018136238118,407.229970142283 455.777222513532,401.685273718063 430.366276463402,396.905275813803 422.26714205599,396.081414088078 417.145507299342,398.576711209671 411.199871039469,416.905941564004 415.381086176358,435.247056287769 420.890734140896,444.745389810526 438.92095284946,457.705236723495 470.311986217757,455.36611123589 486.058055799765,451.123161408794 485.938960870734,448.863982871931 468.199744982671,446.842486783686 463.656059146196,444.869157838718 492.196004588584,444.071998930185 527.292113510981,444.24728568554 562.438515133321,446.885769613636 577.275675458033,444.684503769485 588.241464716336,434.508714336112 599.547147032584,433.034520111408 599.654584619962,429.844691759775 591.971765007907,428.730619244382 589.880795039463,427.435927634472 596.302025019626,425.303137894409 614.707886569427,423.16024844908 626.195855922967,414.089302947501 632.785926519604,406.982317027844 637.043700806405,402.112850330352 639.987510736374,398.326039509957 642.267501596269,396.02521864842 640.386363990085,393.830130004539 633.977129505742,393.422083994172 622.09155541099,393.948070077738 604.624062764283,393.784875381535 590.765597105119,387.656573012149 "/>
  <polygon fill="rgb(180,210,255)" points="425.311016881678,411.002041506584 424.617661349137,401.852173617872 420.349384216514,395.97478934181 414.175128306903,395.428259151324 406.417770653267,398.514889984464 403.578801856511,401.786589867392 399.303202923896,401.661008261702 396.869659451677,396.560582928919 396.066220173429,392.364463386491 394.298529096282,391.707863566964 389.411010151867,390.792291831621 388.331716573933,387.458459265709 391.629829040998,383.629496505362 392.655647864826,379.983395136472 390.909053412655,378.530702466743 385.829315880959,380.763208547803 377.760537952679,387.428175268799 374.009267156966,387.325719396416 367.948788109724,384.880389043377 362.26957815788,381.142169247093 353.898017525779,373.789813213549 355.607978615492,370.024581529796 362.396007320236,369.059621686732 361.906413487462,363.725878680049 360.229432060211,360.965542923203 360.409441843339,355.618272235702 359.657782056698,349.730110124375 355.388078990743,353.174915683494 347.933434445095,360.896304058005 344.346338595027,360.53510120564 333.548270824033,354.171057704578 330.897118552062,353.93713577679 328.865588679383,355.30698345078 330.810818368827,360.847038286117 334.232776556584,378.919324316299 334.704438701878,384.188553968334 337.061903370018,390.816431192983 338.459253585088,394.368694886979 348.261469748887,395.758772349835 353.005960939299,400.852704583181 361.863237325011,403.813231856743 369.205352558288,404.952463590163 376.546941299899,406.167768492108 385.476496177196,406.445566278179 388.570040173661,409.886327227581 385.082829785979,415.227691088978 386.925706171373,417.455054655321 403.927942164445,416.562706593841 415.916848042413,414.191335475717 420.492290824684,411.439282997751 "/>
  <polygon fill="rgb(180,210,255)" points="413.699004736613,413.298295662293 394.078746521533,413.61163596638 386.325554305392,415.863401160196 383.35191994629,417.685638743947 371.341397343347,416.875749954594 363.018325369525,412.178582147184 349.499278284972,414.665379998787 333.199110899431,406.879490246295 327.791328947277,394.531603946237 322.568354432412,386.61244222362 317.358160371699,381.146302020143 309.632089693028,378.224855659315 303.580148679109,377.950999321017 303.795862520529,374.249522538857 306.026458288814,361.165601447419 310.871854987444,350.79797143621 309.596366305568,346.828057601024 301.747094006204,342.690039045475 303.123733446298,339.605956077332 306.13166505536,339.299134667683 306.929950700282,328.601964299906 307.306522391518,321.843895556795 303.215651862859,314.624421716989 302.320574738882,309.393421446578 299.428984879686,305.21867197107 298.047477452098,303.733259345267 290.069140844548,303.324962595456 231.408750678244,303.641881972594 201.282013325169,298.61141278112 196.757608317839,301.23267938618 195.798891414767,304.51551940354 195.98602994372,308.284072512567 200.981902463012,311.765485770256 209.803929498764,314.034396377108 215.451234171478,314.947318870787 216.059835316616,317.385360513279 211.160802980547,321.703211977234 202.95510598159,324.139986590283 196.607233601344,333.093439515607 197.758795833361,341.406815341941 203.345320026978,349.642591140308 215.763443537788,362.661523498488 226.666183116997,367.178735492215 238.557378049242,372.331790558827 250.095498936058,377.759598319291 251.310186363836,388.713400331497 254.735431480756,397.805095649441 270.54846802102,410.084391859021 284.539109288367,411.638792607801 290.417325289983,416.780563143314 298.746565930466,427.042647760477 307.467550828834,435.993646145805 324.208782947204,441.084366251099 356.12080869824,441.719711982595 378.061640464835,442.61858584379 406.054444499515,444.208610093362 422.537293568181,445.946235865543 435.395777665988,447.025779657365 439.995327381566,443.520196426649 431.799157032598,438.830909162285 427.027002763051,432.02865096228 423.980240637365,420.313579228722 420.614192120378,413.980608787903 413.699004736613,413.298295662293 "/>
  <polygon fill="rgb(180,210,255)" points="268.683870893984,306.386454672513 286.961419352266,305.93041746609 295.976395179465,305.687815511923 297.983882602171,303.78807038326 297.504015265219,302.483883804751 291.223803372395,293.083957754658 277.574224879659,288.789143053177 272.862158593377,288.257185620174 275.08168529084,285.655519119258 274.921479174357,283.778782678624 272.531280731255,283.619078557418 262.580949975958,286.212664422788 254.520806585168,287.222879789133 249.20681781624,293.588528162137 249.866356682153,295.807717237935 251.118343872389,297.258695446277 251.096628422414,299.028615185921 248.635249137727,300.328510691658 247.02803610623,299.198021368783 242.737924723632,294.46933722752 243.744628243315,290.953488954037 243.264477818864,286.741546693572 238.149477587208,285.944165357261 230.439621425185,278.445667907496 226.745330821073,275.123673870181 224.605164898518,277.324166499611 222.240684717887,278.081298299857 221.499893106233,272.879695466912 224.198747694816,269.803806406815 224.971790143933,271.467421736303 225.423832893416,270.031947265166 225.559206251595,261.945184747462 226.565284317112,255.386185678012 223.139082621027,250.448744166709 213.957864439851,245.88385868887 210.844878972575,241.683453493948 208.269110842185,237.699880020444 202.455230502995,222.229549857566 187.482811557603,202.794574177273 188.478455981466,200.443590428015 181.724995793349,194.165179457134 150.313477129242,193.834943998067 148.91210529751,194.734494271206 151.52040608203,197.361877616259 156.632858038688,207.529646029363 162.125791649078,217.37123575395 167.906336867473,219.425490749103 170.517873035322,225.715585626082 173.090227415716,226.263877275178 175.201822659136,235.77859265375 185.051438647882,243.502330735202 187.931267882091,245.321054827846 187.261580957856,247.096044836096 181.387776777068,249.267293972226 182.967877041929,252.543103101261 188.056764748614,255.636339708282 195.365689781929,254.192463287432 199.595846122929,256.728549617589 195.495047048448,259.389027076216 189.959033054774,262.936861785495 192.574013751786,279.224549252995 195.821187527242,302.479006652256 196.555954226402,305.429247712496 200.831117596518,307.781891176475 213.32293138641,308.628014836063 244.132070047039,307.560153739783 "/>
  <polygon fill="rgb(180,210,255)" points="174.1546757895,197.589925654332 181.517980085253,198.009895915518 182.977028571085,196.509793069455 183.492116245497,195.309350061382 182.833447004583,193.952117938489 180.043015670271,192.412773172192 173.63532879426,186.173160967933 166.548416156524,184.129737270268 161.60177652051,184.384039261922 156.726474246914,178.723860551167 157.241296767159,175.39311861414 158.087825978692,166.283765622326 160.426489134353,162.460460081973 149.832395325625,151.954406957589 140.925049494137,148.531179042056 136.399065561808,136.129217070394 138.599862146794,131.038257100378 138.917237113098,125.286925768617 141.29527418538,123.194420855452 131.244970767698,114.704188728209 124.766310908434,111.98887220909 94.801752401007,127.467464518625 93.789036693831,130.755265742368 95.1087071923229,135.296721214401 100.810396914974,144.721594573631 108.293754643923,153.30237665716 118.309855103312,163.970617092747 132.125680304192,178.499259290035 143.088794770831,189.845142052348 148.169208452526,194.374576867728 151.531597098684,195.989600157271 162.846965702421,197.105463144052 "/>
  <polygon fill="rgb(180,210,255)" points="154.795106586621,122.861682513332 139.081324417077,124.311913781397 130.361767385374,121.887559028057 124.761882050106,112.487577893242 132.619719482794,106.379284136055 140.368899578106,99.5534123896882 149.056397859845,99.1134302518576 155.788573693819,103.938194578011 166.561574239843,106.434149510992 170.341336656357,110.656781510056 171.153562813762,114.158746298832 177.577479881422,113.56619847451 179.181321508756,120.427064814448 182.9058434795,131.865415432766 193.289116488469,141.290674313663 198.898113236226,143.192527063712 198.48952354086,145.838423766522 195.392038777733,146.753467666865 193.149284163628,154.93279736363 202.731469231846,160.599378090211 207.897123459276,160.003715582002 207.883669209292,163.710465079711 213.659129365192,177.047810402805 211.141150263903,182.569386636773 217.206702423639,192.631369560553 217.638976156478,199.670377805288 219.415230075282,211.326952904468 227.316673562087,215.922765373661 237.760069887653,220.794838987816 243.36115519792,229.652934110194 249.895676415453,236.57466211173 256.202469674913,242.008483911909 253.740356306893,248.11430205521 248.974867599838,248.276108292803 233.708100425617,242.21387454723 227.93461988638,239.934225782335 217.351476535973,240.141130143765 217.227519923615,230.709346446487 211.125350959754,222.033273635846 204.075446084477,215.64647657981 205.79365793668,210.706468176288 202.383262544744,208.50944776241 199.592170718766,209.071418992879 196.939897609297,205.300994158021 203.055637243975,199.57498467373 204.624130517183,195.148157288789 205.708892682611,188.763451024417 201.030743746289,189.548804145187 198.799318548839,187.525135266944 202.225464324091,184.699804433783 190.022578942201,181.400746437553 184.056590957352,181.353904092329 181.659934143424,178.844977862418 176.18163959135,177.543269209183 174.088411593742,179.948867660601 170.482087293696,181.312583472376 166.918975793601,173.566322614005 164.02338190941,164.919789561385 150.374801620839,144.167776507875 148.869121176726,137.557599979595 153.06669543443,129.295251414036 156.090957476807,123.346350058056 155.950383139468,122.570869625609 154.795106586621,122.861682513332 "/>
  <polygon fill="rgb(180,210,255)" points="118.849259606862,126.304601975509 104.298979848488,131.721068332376 94.7274727802583,130.438400026897 76.2060123222557,125.348609264379 71.6057880608455,119.127656526766 60.9312123897098,119.779544077688 35.8241925850654,119.468339877765 14.1795257514646,120.135140451448 8.20714951245577,119.466995951656 1.05447044146229,109.414529285365 -5.958998468191,100.442771532005 -17.955549641983,106.149696667429 -20.636035422253,102.18601319918 -30.623321215008,102.00863839216 -33.378888266026,96.8534813283288 -50.558153154729,95.5090565520873 -71.669975518105,102.865088757293 -77.992076790048,100.90764837953 -80.851431765947,106.761866970896 -83.665977804398,101.239610617206 -99.620588157,111.347720117045 -110.72892199014,111.665632906681 -124.789486994907,119.069594565165 -128.743624915389,119.447107492234 -135.435896216075,120.426378076671 -124.303586887129,111.226263069961 -108.019568397403,103.107537988683 -116.966264970513,87.4730033173809 -82.15282051446,82.8185153363106 -81.550442723482,78.4233573791105 -105.443933867013,81.4834276278361 -135.048253445685,87.7699933612082 -148.359744755474,87.3307713589323 -150.575791857109,82.1971606225761 -131.190653329259,78.3355700405998 -85.256685785913,69.4514174913069 -39.5855580381,69.5938040119776 -46.908509483899,73.9054973673285 -29.081663587603,77.8997791994311 -25.3276104835591,71.7801899869793 -18.427809387277,72.7129293236912 -5.85297048081202,70.563136141981 5.61751888624815,77.2961511787319 58.9173795336776,88.7600652309102 70.6225816911357,88.6052108821983 73.039597388374,78.4837672382082 53.1101528361467,74.0390015077315 56.1234213660367,69.1489188172082 71.9694906645968,70.6164670960868 82.1940506029135,60.4517496549239 91.7465374003315,69.2743025951204 100.28627451974,77.1721692949847 108.586952814422,83.7319736955446 104.040792419617,95.3884255891696 109.765516333908,97.0635446758666 104.977745626879,100.04658673218 110.194141329252,108.818625246046 114.735234124063,115.021976808957 118.386351515724,120.383370170053 118.849259606862,126.304601975509 "/>
  <polygon fill="rgb(180,210,255)" points="1118.84925960686,126.304601975509 1104.29897984849,131.721068332376 1094.72747278026,130.438400026897 1076.20601232226,125.348609264379 1071.60578806085,119.127656526766 1060.93121238971,119.779544077688 1035.82419258507,119.468339877765 1014.17952575146,120.135140451448 1008.20714951246,119.466995951656 1001.05447044146,109.414529285365 994.041001531809,100.442771532005 982.044450358017,106.149696667429 979.363964577747,102.18601319918 969.376678784992,102.00863839216 966.621111733974,96.8534813283288 949.441846845271,95.5090565520873 928.330024481895,102.865088757293 922.007923209952,100.90764837953 919.148568234053,106.761866970896 916.334022195602,101.239610617206 900.379411843,111.347720117045 889.27107800986,111.665632906681 875.210513005093,119.069594565165 871.256375084611,119.447107492234 864.564103783925,120.426378076671 875.696413112871,111.226263069961 891.980431602597,103.107537988683 883.033735029487,87.4730033173809 917.84717948554,82.8185153363106 918.449557276518,78.4233573791105 894.556066132987,81.4834276278361 864.951746554315,87.7699933612082 851.640255244526,87.3307713589323 849.424208142891,82.1971606225761 868.809346670741,78.3355700405998 914.743314214087,69.4514174913069 960.4144419619,69.5938040119776 953.091490516101,73.9054973673285 970.918336412397,77.8997791994311 974.672389516441,71.7801899869793 981.572190612723,72.7129293236912 994.147029519188,70.563136141981 1005.61751888625,77.2961511787319 1058.91737953368,88.7600652309102 1070.62258169114,88.6052108821983 1073.03959738837,78.4837672382082 1053.11015283615,74.0390015077315 1056.12342136604,69.1489188172082 1071.9694906646,70.6164670960868 1082.19405060291,60.4517496549239 1091.74653740033,69.2743025951204 1100.28627451974,77.1721692949847 1108.58695281442,83.7319736955446 1104.04079241962,95.3884255891696 1109.76551633391,97.0635446758666 1104.97774562688,100.04658673218 1110.19414132925,108.818625246046 1114.73523412406,115.021976808957 1118.38635151572,120.383370170053 1118.84925960686,126.304601975509 "/>
  <polygon fill="rgb(180,210,255)" points="756.435864419979,436.128654298706 769.159651234607,434.015385729176 775.41704442329,430.502134140691 785.338744649453,430.957252509337 790.072484156544,427.224594871102 797.442456627289,436.228849663314 793.545859465075,448.455875522398 768.003716302595,449.583607141109 755.380002396186,446.889833573076 758.963591804591,440.584847258892 754.919143575879,440.073769367809 751.862377341872,438.019287455434 756.435864419979,436.128654298706 "/>
  <polygon fill="rgb(180,210,255)" points="963.35149861271,455.23529594104 949.179792237237,452.439993632567 956.594603299598,448.245757865693 967.696400432746,448.518304297326 973.280733834698,451.0308624514 977.427988079959,453.205175566971 971.783664578075,454.602721818985 963.35149861271,455.23529594104 "/>
  <polygon fill="rgb(255,255,255)" points="473.1332274437,424.602442728821 474.210650663302,423.470007662337 476.719843110435,422.622508271083 477.026596501751,421.504331555972 473.724788059691,421.268271448464 472.896040202304,419.95963721607 466.700056755218,419.939179455538 465.998242751853,419.168717823363 455.982454892464,419.296855000161 450.285298898974,420.674679878865 451.932929451258,420.511733821551 454.173027811198,421.133689492784 454.0260195572,422.34769892362 449.735498487103,422.539071510068 448.389203792808,423.372659828004 449.034158504571,425.062980650239 450.870490877472,427.2365850022 458.689447643538,430.077306650343 462.074520210503,429.888580773892 463.118885238476,429.450790081614 465.976528114378,430.55567887424 471.871378532642,431.931843686279 473.957038996925,431.558215129206 474.219641725792,427.565504962935 471.685901674521,427.39753683896 474.83996849175,426.553519287425 472.94905925641,425.15975910624 "/>
</svg>
